<svg width="1082" height="62" viewBox="0 0 1082 62" fill="none" xmlns="http://www.w3.org/2000/svg">
<path d="M1 31C1 31 5.19968 19.75 9.4375 19.75C13.6753 19.75 13.8014 29.0742 17.875 31C27.1913 35.4043 25.0582 1 34.75 1C44.4418 1 44.1913 20.7479 51.625 31C57.7205 39.4065 60.5529 49.75 68.5 49.75C76.4471 49.75 78.5681 37.7618 85.375 31C91.7878 24.6297 94.7776 15.2307 102.25 16C111.293 16.931 111.389 34.473 119.125 42.25C125.194 48.3515 128.924 54.6266 136 53.5C144.436 52.1567 144.439 32.3433 152.875 31C159.951 29.8734 162.641 42.25 169.75 42.25C176.859 42.25 179.883 34.7151 186.625 31C193.098 27.4329 196.675 23.5 203.5 23.5C210.325 23.5 214.364 25.671 220.375 31C228.911 38.567 227.558 61 237.25 61C246.942 61 256.684 36.0625 267.161 29.6875C277.638 23.3125 295.058 47.125 304.75 47.125C314.442 47.125 313.089 35.0673 321.625 31C327.636 28.1356 331.675 26.9688 338.5 26.9688C345.325 26.9688 348.902 29.0827 355.375 31C362.117 32.9968 365.141 37.0469 372.25 37.0469C379.359 37.0469 382.049 30.3944 389.125 31C397.561 31.722 397.564 42.3717 406 43.0938C413.076 43.6993 416.806 40.3264 422.875 37.0469C430.611 32.8667 430.707 23.4379 439.75 22.9375C447.222 22.524 450.212 27.5759 456.625 31C463.432 34.6345 465.553 41.0781 473.5 41.0781C481.447 41.0781 484.28 35.5185 490.375 31C497.809 25.4895 497.558 14.875 507.25 14.875C516.942 14.875 514.809 33.3673 524.125 31C528.199 29.9649 528.325 24.9531 532.563 24.9531C536.8 24.9531 538.212 28.5832 541 31C545.916 35.2613 545.2 42.25 549.438 42.25C553.675 42.25 553.801 32.9258 557.875 31C567.191 26.5957 565.058 61 574.75 61C584.442 61 584.191 41.2521 591.625 31C597.72 22.5935 600.553 12.25 608.5 12.25C616.447 12.25 618.568 24.2382 625.375 31C631.788 37.3703 634.778 46.7693 642.25 46C651.293 45.069 651.389 27.527 659.125 19.75C665.194 13.6485 668.924 7.37339 676 8.5C684.436 9.84328 684.439 29.6567 692.875 31C699.951 32.1266 702.641 19.75 709.75 19.75C716.859 19.75 719.883 27.2849 726.625 31C733.098 34.5671 736.675 38.5 743.5 38.5C750.325 38.5 754.364 36.329 760.375 31C768.911 23.433 767.558 1 777.25 1C786.942 1 796.684 25.9375 807.161 32.3125C817.638 38.6875 835.058 14.875 844.75 14.875C854.442 14.875 853.089 26.9327 861.625 31C867.636 33.8644 871.675 35.0312 878.5 35.0312C885.325 35.0312 888.902 32.9173 895.375 31C902.117 29.0032 905.142 24.9531 912.25 24.9531C919.359 24.9531 922.049 31.6056 929.125 31C937.561 30.278 937.564 19.6283 946 18.9062C953.076 18.3007 956.806 21.6736 962.875 24.9531C970.611 29.1333 970.707 38.5621 979.75 39.0625C987.222 39.476 990.212 34.4241 996.625 31C1003.43 27.3655 1005.55 20.9219 1013.5 20.9219C1021.45 20.9219 1024.28 26.4815 1030.38 31C1037.81 36.5105 1037.56 47.125 1047.25 47.125C1056.94 47.125 1054.81 28.6327 1064.13 31C1068.2 32.0351 1068.32 37.0469 1072.56 37.0469C1076.8 37.0469 1081 31 1081 31" stroke="#ECBD47" stroke-opacity="0.4"/>
<circle cx="69" cy="33" r="2" fill="#ECBD47"/>
<circle cx="507" cy="33" r="2" fill="#ECBD47"/>
<circle cx="641" cy="28" r="2" fill="#ECBD47"/>
<circle cx="780" cy="20" r="2" fill="#ECBD47"/>
<circle cx="1015" cy="34" r="2" fill="#ECBD47"/>
</svg>
