<svg width="107" height="137" viewBox="0 0 107 137" fill="none" xmlns="http://www.w3.org/2000/svg">
<g filter="url(#filter0_i_53_175)">
<path d="M-0.0599976 135.68C-8.38 137 -13.34 137 -14 137C-16.34 133.98 -23.67 123.99 -24.005 122.985L-25.005 119.985C-26.34 115.98 -27.7657 111.344 -29.005 106.15C-30 101.98 -31.6919 91.2317 -33.34 83.135C-35 74.98 -36.395 70.3298 -37.17 65.815C-38 60.98 -40.8551 55.5854 -38.83 24.095C-38.33 16.32 -39.0325 10.4797 -37.83 3.465C-36.66 -3.36 -32.2797 -18.5781 -27.32 -31.2C-23.98 -39.7 -19.9886 -52.2739 -11.145 -54.34C-8.32 -55 -5.62846 -54.7004 -1.45 -53.485C11.7 -49.66 19.8631 -44.3502 32.045 -42.325C38.03 -41.33 54.4961 -32.9239 77.09 -27.64C92.74 -23.98 104.509 -21.9073 105.505 -16.785C106 -14.24 106.444 -9.53446 105.49 -5.78C102.66 5.36 99.0508 16.0169 92.985 15.5C90.99 15.33 88.006 14.6262 87.495 16.345C87 18.01 87.8463 23.3445 82.65 26.02C74.92 30 64.5196 26.6061 56.81 29.34C53.99 30.34 52.8575 32.9539 50.82 33.505C48.99 34 41.4521 26.4224 35.15 29.34C32.99 30.34 30.002 32.026 30.67 34.015C31.34 36.01 36.149 39.4254 32.66 53.87C31.66 58.01 28.5471 58.8489 28.835 60.345C30 66.4 27.0119 76.3479 28.165 82.855C29.02 87.68 32.3268 98.0196 29.995 105.015C29.33 107.01 28.0119 108.737 25.985 109.84C21.98 112.02 13.0496 111.529 12.495 116.195C12 120.36 11.9156 124.147 10.825 126.015C9.66 128.01 7.32277 134.509 -0.0599976 135.68Z" fill="#241C37"/>
</g>
<g filter="url(#filter1_i_53_175)">
<path d="M-3.1079 102.239C-4.34111 102.876 -5.70058 103.728 -6.63154 104.319C-7.06004 104.059 -9.26886 103.296 -9.39639 102.953C-9.52392 102.61 -9.60808 102.19 -9.82361 101.589C-10.7992 99.1263 -10.9333 97.9217 -11.266 95.3846C-11.4777 93.77 -11.4048 92.363 -11.8195 90.9644C-12.503 88.6586 -13.645 85.1876 -14.4134 82.2056C-15.1403 79.3847 -16.0109 76.1911 -16.2396 72.5108C-16.3238 71.1565 -16.7278 69.4517 -17.5264 60.6888C-18.2163 53.1187 -19.3105 39.5674 -19.8576 32.0979C-20.4047 24.6285 -20.4587 23.2765 -20.318 22.1315C-20.063 20.0553 -20.077 17.4455 -19.5516 14.5626C-19.1269 12.2326 -18.9755 10.1457 -18.3579 7.45284C-17.4231 3.37699 -16.3263 0.199654 -15.8953 -1.58647C-15.0434 -5.11649 -13.972 -7.62377 -12.1447 -10.65C-8.92198 -15.9871 -7.88165 -17.2898 -6.541 -17.8133C-4.22888 -18.7163 -0.532984 -20.9834 5.07313 -22.6199C6.80754 -23.1262 7.89653 -23.4852 9.97537 -23.8532C14.0538 -24.575 17.5928 -25.4357 19.3514 -25.8911C20.494 -26.1869 21.5683 -26.6879 22.9222 -26.9534C25.0876 -27.3781 26.9444 -27.7982 28.5718 -28.0144C30.1939 -28.23 32.2027 -29.3748 35.0885 -29.2897C39.5444 -29.1584 42.0667 -29.0694 47.0585 -27.1039C49.4713 -26.1538 53.1748 -24.5546 55.8937 -23.278C58.6126 -22.0014 60.2839 -21.0515 62.6553 -19.8755C67.9606 -17.2446 71.7641 -14.9617 73.7695 -13.8497C77.2932 -11.896 80.0266 -10.8966 80.8168 -8.61846C82.1342 -4.82062 83.3305 0.211796 82.1661 2.0494C81.3588 3.32342 80.0965 3.93672 79.4893 4.63698C78.6399 5.61641 78.4542 7.0055 77.4501 7.82522C76.5127 8.5904 75.4883 10.2222 74.0437 9.81851C71.7482 9.17703 70.3725 8.22414 69.116 8.46032C68.4375 8.58785 67.5285 8.76877 67.1189 9.5711C66.2287 11.3144 66.2589 13.3795 64.7813 13.9466C63.2394 14.5384 59.2416 13.1598 56.7826 13.0501C53.894 12.9213 49.4431 10.3982 46.7141 8.88244C45.5638 8.24352 43.8986 7.2907 42.3348 6.84197C40.7126 6.37648 35.4698 5.98146 34.558 8.46542C34.2621 9.27141 33.9702 10.3365 34.521 10.5875C35.5451 11.0543 38.4041 10.8575 39.6248 13.2299C40.3019 14.546 41.078 16.8436 40.2981 18.326C39.7842 19.3029 38.5291 20.2193 36.8089 20.832C35.6165 21.2567 34.1708 22.6864 32.2956 22.6582C29.3267 22.6136 27.4821 22.4994 26.0951 23.1709C23.5267 24.4143 20.5818 26.6336 19.294 26.7825C17.8491 26.9496 16.5364 27.0843 14.7361 27.2072C10.9625 27.4648 9.73003 27.6665 6.75397 29.2936C6.20815 29.592 6.29232 29.8445 6.46448 30.1008C6.63665 30.3572 6.91478 30.5945 7.05877 30.866C7.83032 32.3211 9.37295 34.1829 9.09669 36.6967C8.84036 39.0292 7.90228 39.992 7.94893 41.3247C7.99356 42.6 8.05063 43.7557 8.84674 45.0256C10.2075 47.1962 11.0397 48.7274 11.8654 50.1268C13.0947 52.2106 14.8941 54.9636 13.6393 55.1795C12.6611 55.3479 10.9105 54.5105 10.5403 55.265C10.3733 55.6055 10.4953 56.7443 11.6078 61.0969C12.0745 62.9231 13.0888 64.6538 12.7096 66.4914C12.4112 67.9376 11.9686 69.2747 11.7315 70.7866C11.391 72.9572 9.58791 74.7822 10.1169 78.6539C10.5493 81.8179 11.8906 86.2829 10.8796 87.1908C10.4549 87.5721 9.49869 87.6939 8.36977 88.2097C6.96312 88.8525 3.62125 89.0222 1.99201 93.5736C1.2753 95.5758 1.69215 98.131 0.633823 99.2232C-0.601938 100.498 -1.81414 101.572 -3.1079 102.239Z" fill="#1E1533"/>
</g>
<defs>
<filter id="filter0_i_53_175" x="-39.5417" y="-56.6823" width="145.594" height="193.682" filterUnits="userSpaceOnUse" color-interpolation-filters="sRGB">
<feFlood flood-opacity="0" result="BackgroundImageFix"/>
<feBlend mode="normal" in="SourceGraphic" in2="BackgroundImageFix" result="shape"/>
<feColorMatrix in="SourceAlpha" type="matrix" values="0 0 0 0 0 0 0 0 0 0 0 0 0 0 0 0 0 0 127 0" result="hardAlpha"/>
<feOffset dy="-2"/>
<feGaussianBlur stdDeviation="5"/>
<feComposite in2="hardAlpha" operator="arithmetic" k2="-1" k3="1"/>
<feColorMatrix type="matrix" values="0 0 0 0 0 0 0 0 0 0 0 0 0 0 0 0 0 0 0.15 0"/>
<feBlend mode="normal" in2="shape" result="effect1_innerShadow_53_175"/>
</filter>
<filter id="filter1_i_53_175" x="-20.384" y="-31.2942" width="103.022" height="135.614" filterUnits="userSpaceOnUse" color-interpolation-filters="sRGB">
<feFlood flood-opacity="0" result="BackgroundImageFix"/>
<feBlend mode="normal" in="SourceGraphic" in2="BackgroundImageFix" result="shape"/>
<feColorMatrix in="SourceAlpha" type="matrix" values="0 0 0 0 0 0 0 0 0 0 0 0 0 0 0 0 0 0 127 0" result="hardAlpha"/>
<feOffset dy="-2"/>
<feGaussianBlur stdDeviation="5"/>
<feComposite in2="hardAlpha" operator="arithmetic" k2="-1" k3="1"/>
<feColorMatrix type="matrix" values="0 0 0 0 0 0 0 0 0 0 0 0 0 0 0 0 0 0 0.15 0"/>
<feBlend mode="normal" in2="shape" result="effect1_innerShadow_53_175"/>
</filter>
</defs>
</svg>
