<svg width="36" height="36" viewBox="0 0 36 36" fill="none" xmlns="http://www.w3.org/2000/svg">
<path d="M0.5 18C0.5 8.33502 8.33502 0.5 18 0.5C22.0653 0.5 25.8073 1.88855 28.7783 4.21484C29.1155 4.47886 29.2469 4.92783 29.1055 5.33203C28.9639 5.73629 28.5806 6.00595 28.1523 6.00195C28.0696 6.00118 28.0536 6 28 6C19.1634 6 12 13.1634 12 22C12 26.614 13.9528 30.7698 17.0791 33.6914C17.392 33.9838 17.4837 34.4427 17.3076 34.833C17.1315 35.2233 16.7269 35.458 16.3008 35.417C7.43294 34.5617 0.5 27.0919 0.5 18ZM2.5 18C2.5 25.0553 7.21481 31.0088 13.665 32.8838C11.3667 29.8617 10 26.0905 10 22C10 13.0408 16.5455 5.61097 25.1152 4.23047C22.9844 3.12635 20.5667 2.5 18 2.5C9.43959 2.5 2.5 9.43959 2.5 18Z" fill="currentColor"/>
<path d="M7.63108 29.7695C7.72419 30.1833 7.83272 30.5935 7.95629 30.9992C7.70982 30.8234 7.47072 30.6401 7.23655 30.4529L7.63108 29.7695Z" fill="currentColor"/>
<path d="M7.22178 26.4785C7.23755 27.068 7.28439 27.6551 7.36076 28.2378L6.46183 29.7947C6.20609 29.5629 5.95946 29.3236 5.72081 29.0782L7.22178 26.4785Z" fill="currentColor"/>
<path d="M7.87548 21.3462C7.59036 22.3358 7.3993 23.339 7.29912 24.3445L5.01347 28.3034C4.78011 28.0305 4.55646 27.751 4.34276 27.4651L7.87548 21.3462Z" fill="currentColor"/>
<path d="M3.7116 26.5583C3.50384 26.2374 3.30766 25.9102 3.1234 25.5771L17.267 1.07972C17.6478 1.07269 18.0294 1.07814 18.4113 1.09765L3.7116 26.5583Z" fill="currentColor"/>
<path d="M2.58404 24.5113C2.40796 24.1302 2.24574 23.7434 2.09936 23.3508L14.8269 1.30602C15.2402 1.23647 15.6565 1.18272 16.0748 1.14466L2.58404 24.5113Z" fill="currentColor"/>
<path d="M1.68158 22.0744C1.54903 21.6063 1.43777 21.1324 1.3468 20.6542L12.1158 2.00171C12.5747 1.84168 13.0407 1.70321 13.5117 1.58409L1.68158 22.0744Z" fill="currentColor"/>
<path d="M1.12091 19.0455C1.0643 18.4176 1.04375 17.7853 1.05958 17.1517L8.93946 3.50337C9.47955 3.17341 10.0374 2.87673 10.6087 2.61215L1.12091 19.0455Z" fill="currentColor"/>
<path d="M1.29853 14.7378C1.62234 12.8838 2.27071 11.054 3.26649 9.32924C4.26273 7.6037 5.52336 6.12593 6.96797 4.9181L1.29853 14.7378Z" fill="currentColor"/>
<path d="M14.2889 12.2379C13.4674 12.8279 12.694 13.4964 11.979 14.2387L19.5117 1.1917C19.8661 1.23383 20.22 1.28777 20.573 1.35341L14.2889 12.2379Z" fill="currentColor"/>
<path d="M17.6908 10.3455C17.1484 10.5706 16.6164 10.823 16.0982 11.104L21.5982 1.5777C21.9299 1.66167 22.2598 1.75736 22.5883 1.86289L17.6908 10.3455Z" fill="currentColor"/>
<path d="M20.5166 9.45111C20.0568 9.55376 19.6014 9.6752 19.1516 9.81544L23.5466 2.20305C23.8577 2.32469 24.1667 2.45625 24.4732 2.59818L20.5166 9.45111Z" fill="currentColor"/>
<path d="M25.8059 3.28982C25.9508 3.37345 26.0937 3.45927 26.235 3.54659L23.0392 9.08187C22.6269 9.11086 22.2162 9.15577 21.808 9.21448L25.369 3.04659C25.5153 3.12534 25.6611 3.20619 25.8059 3.28982Z" fill="currentColor"/>
<path d="M27.0708 4.09902C27.347 4.29354 27.6143 4.49689 27.8753 4.70558L25.3509 9.078C24.9729 9.053 24.595 9.04029 24.2177 9.04061L27.0708 4.09902Z" fill="currentColor"/>
<path d="M28.651 5.36204C28.9069 5.59405 29.1518 5.8355 29.3905 6.08109L27.4979 9.35913C27.1473 9.29012 26.7957 9.23197 26.4434 9.18558L28.651 5.36204Z" fill="currentColor"/>
<path d="M30.0988 6.85426C30.3324 7.1275 30.5543 7.40884 30.7681 7.69508L29.5044 9.88383C29.1772 9.77637 28.8482 9.67933 28.5178 9.59272L30.0988 6.85426Z" fill="currentColor"/>
<path d="M31.3997 8.60103C31.6072 8.92166 31.8049 9.24762 31.9889 9.58056L31.3839 10.6284C31.078 10.4858 30.7697 10.3529 30.4593 10.2299L31.3997 8.60103Z" fill="currentColor"/>
<path d="M32.5273 10.648C32.6425 10.8976 32.753 11.149 32.8556 11.4037C32.8091 11.3762 32.763 11.348 32.7162 11.3209C32.5713 11.2373 32.4255 11.1566 32.2792 11.0777L32.5273 10.648Z" fill="currentColor"/>
<path d="M18.4961 34.9932L18.5098 35.4932C18.3404 35.498 18.1705 35.5 18 35.5C17.8295 35.5 17.6596 35.498 17.4902 35.4932L17.5039 34.9932L17.5186 34.4932C17.6784 34.4977 17.839 34.5 18 34.5C18.161 34.5 18.3215 34.4977 18.4814 34.4932L18.4961 34.9932ZM14.6621 34.1621C14.9739 34.2262 15.2894 34.2819 15.6074 34.3281L15.4629 35.3174C15.1257 35.2684 14.7917 35.2095 14.4609 35.1416L14.6621 34.1621ZM21.5391 35.1416C21.2083 35.2095 20.8743 35.2684 20.5371 35.3174L20.3926 34.3281C20.7106 34.2819 21.0261 34.2262 21.3379 34.1621L21.5391 35.1416ZM11.9062 33.3379C12.2026 33.4557 12.5031 33.5661 12.8076 33.667L12.4932 34.6162C12.1701 34.5092 11.8515 34.3926 11.5371 34.2676L11.9062 33.3379ZM24.4629 34.2676C24.1485 34.3926 23.8299 34.5092 23.5068 34.6162L23.1924 33.667C23.4969 33.5661 23.7974 33.4557 24.0938 33.3379L24.4629 34.2676ZM9.33691 32.0459C9.60869 32.2139 9.88604 32.374 10.168 32.5264L9.93066 32.9668L9.69238 33.4062C9.39339 33.2447 9.0997 33.0746 8.81152 32.8965L9.07422 32.4707L9.33691 32.0459ZM26.9258 32.4707L27.1885 32.8965C26.9003 33.0746 26.6066 33.2447 26.3076 33.4062L26.0693 32.9668L25.832 32.5264C26.114 32.374 26.3913 32.2139 26.6631 32.0459L26.9258 32.4707ZM7.03125 30.3262C7.26999 30.5388 7.51477 30.7447 7.76562 30.9434L7.45605 31.3359L7.14551 31.7275C6.87942 31.5169 6.61943 31.2987 6.36621 31.0732L6.69824 30.6992L7.03125 30.3262ZM29.3018 30.6992L29.6338 31.0732C29.3806 31.2987 29.1206 31.5169 28.8545 31.7275L28.5439 31.3359L28.2344 30.9434C28.4852 30.7447 28.73 30.5388 28.9688 30.3262L29.3018 30.6992ZM5.05664 28.2344C5.25527 28.4852 5.46123 28.73 5.67383 28.9688L5.30078 29.3018L4.92676 29.6338C4.70127 29.3806 4.48314 29.1206 4.27246 28.8545L4.66406 28.5439L5.05664 28.2344ZM31.3359 28.5439L31.7275 28.8545C31.5169 29.1206 31.2987 29.3806 31.0732 29.6338L30.6992 29.3018L30.3262 28.9688C30.5388 28.73 30.7447 28.4852 30.9434 28.2344L31.3359 28.5439ZM3.47363 25.832C3.62597 26.114 3.78612 26.3913 3.9541 26.6631L3.5293 26.9258L3.10352 27.1885C2.9254 26.9003 2.75531 26.6066 2.59375 26.3076L3.0332 26.0693L3.47363 25.832ZM32.9668 26.0693L33.4062 26.3076C33.2447 26.6066 33.0746 26.9003 32.8965 27.1885L32.4707 26.9258L32.0459 26.6631C32.2139 26.3913 32.374 26.114 32.5264 25.832L32.9668 26.0693ZM2.33301 23.1924C2.43388 23.4969 2.54426 23.7974 2.66211 24.0938L1.73242 24.4629C1.60743 24.1485 1.49079 23.8299 1.38379 23.5068L2.33301 23.1924ZM34.6162 23.5068C34.5092 23.8299 34.3926 24.1485 34.2676 24.4629L33.3379 24.0938C33.4557 23.7974 33.5661 23.4969 33.667 23.1924L34.6162 23.5068ZM1.67188 20.3926C1.71807 20.7106 1.77384 21.0261 1.83789 21.3379L0.858398 21.5391C0.790466 21.2083 0.731599 20.8743 0.682617 20.5371L1.67188 20.3926ZM35.3174 20.5371C35.2684 20.8743 35.2095 21.2083 35.1416 21.5391L34.1621 21.3379C34.2262 21.0261 34.2819 20.7106 34.3281 20.3926L35.3174 20.5371ZM0.5 18C0.5 17.8295 0.501989 17.6596 0.506836 17.4902L1.00684 17.5039L1.50684 17.5186C1.50226 17.6784 1.5 17.839 1.5 18C1.5 18.161 1.50226 18.3215 1.50684 18.4814L1.00684 18.4961L0.506836 18.5098C0.501989 18.3404 0.5 18.1705 0.5 18ZM34.5 18C34.5 17.839 34.4977 17.6785 34.4932 17.5186L34.9932 17.5039L35.4932 17.4902C35.498 17.6596 35.5 17.8295 35.5 18C35.5 18.1705 35.498 18.3404 35.4932 18.5098L34.9932 18.4961L34.4932 18.4814C34.4977 18.3216 34.5 18.161 34.5 18ZM1.83789 14.6621C1.77384 14.9739 1.71807 15.2894 1.67188 15.6074L0.682617 15.4629C0.731599 15.1257 0.790466 14.7917 0.858398 14.4609L1.83789 14.6621ZM35.1416 14.4609C35.2095 14.7917 35.2684 15.1257 35.3174 15.4629L34.3281 15.6074C34.2819 15.2894 34.2262 14.9739 34.1621 14.6621L35.1416 14.4609ZM2.66211 11.9062C2.54426 12.2026 2.43388 12.5031 2.33301 12.8076L1.38379 12.4932C1.49079 12.1701 1.60743 11.8515 1.73242 11.5371L2.66211 11.9062ZM34.2676 11.5371C34.3926 11.8515 34.5092 12.1701 34.6162 12.4932L33.667 12.8076C33.5661 12.5031 33.4557 12.2026 33.3379 11.9062L34.2676 11.5371ZM3.5293 9.07422L3.9541 9.33691C3.78612 9.60869 3.62597 9.88604 3.47363 10.168L3.0332 9.93066L2.59375 9.69238C2.75531 9.39339 2.9254 9.0997 3.10352 8.81152L3.5293 9.07422ZM32.8965 8.81152C33.0746 9.0997 33.2447 9.39339 33.4062 9.69238L32.9668 9.93066L32.5264 10.168C32.374 9.88604 32.2139 9.60869 32.0459 9.33691L32.4707 9.07422L32.8965 8.81152ZM5.30078 6.69824L5.67383 7.03125C5.46123 7.26999 5.25527 7.51477 5.05664 7.76562L4.66406 7.45605L4.27246 7.14551C4.48314 6.87942 4.70127 6.61943 4.92676 6.36621L5.30078 6.69824ZM31.0732 6.36621C31.2987 6.61943 31.5169 6.87942 31.7275 7.14551L31.3359 7.45605L30.9434 7.76562C30.7447 7.51477 30.5388 7.26999 30.3262 7.03125L30.6992 6.69824L31.0732 6.36621ZM7.45605 4.66406L7.76562 5.05664C7.51477 5.25527 7.26999 5.46123 7.03125 5.67383L6.69824 5.30078L6.36621 4.92676C6.61943 4.70127 6.87942 4.48314 7.14551 4.27246L7.45605 4.66406ZM28.8545 4.27246C29.1206 4.48314 29.3806 4.70127 29.6338 4.92676L29.3018 5.30078L28.9688 5.67383C28.73 5.46123 28.4852 5.25527 28.2344 5.05664L28.5439 4.66406L28.8545 4.27246ZM9.93066 3.0332L10.168 3.47363C9.88604 3.62597 9.60869 3.78612 9.33691 3.9541L9.07422 3.5293L8.81152 3.10352C9.0997 2.9254 9.39339 2.75531 9.69238 2.59375L9.93066 3.0332ZM26.3076 2.59375C26.6066 2.75531 26.9003 2.9254 27.1885 3.10352L26.9258 3.5293L26.6631 3.9541C26.3913 3.78612 26.114 3.62597 25.832 3.47363L26.0693 3.0332L26.3076 2.59375ZM12.8076 2.33301C12.5031 2.43388 12.2026 2.54426 11.9062 2.66211L11.5371 1.73242C11.8515 1.60743 12.1701 1.49079 12.4932 1.38379L12.8076 2.33301ZM23.5068 1.38379C23.8299 1.49079 24.1485 1.60743 24.4629 1.73242L24.0938 2.66211C23.7974 2.54426 23.4969 2.43388 23.1924 2.33301L23.5068 1.38379ZM15.6074 1.67188C15.2894 1.71807 14.9739 1.77384 14.6621 1.83789L14.4609 0.858398C14.7917 0.790466 15.1257 0.731599 15.4629 0.682617L15.6074 1.67188ZM20.5371 0.682617C20.8743 0.731599 21.2083 0.790466 21.5391 0.858398L21.3379 1.83789C21.0261 1.77384 20.7106 1.71807 20.3926 1.67188L20.5371 0.682617ZM18.5098 0.506836L18.4961 1.00684L18.4814 1.50684C18.3216 1.50226 18.161 1.5 18 1.5C17.839 1.5 17.6785 1.50226 17.5186 1.50684L17.5039 1.00684L17.4902 0.506836C17.6596 0.501989 17.8295 0.5 18 0.5C18.1705 0.5 18.3404 0.501989 18.5098 0.506836Z" fill="currentColor"/>
</svg>

